<svg width="44" height="44" viewBox="0 0 44 44" fill="none" xmlns="http://www.w3.org/2000/svg">
<path d="M41.58 0H2.42C1.77818 0 1.16264 0.254964 0.708802 0.708802C0.254964 1.16264 0 1.77818 0 2.42V41.58C0 41.8978 0.0625953 42.2125 0.184212 42.5061C0.305828 42.7997 0.484084 43.0665 0.708802 43.2912C0.93352 43.5159 1.2003 43.6942 1.49391 43.8158C1.78751 43.9374 2.1022 44 2.42 44H23.496V26.95H17.776V20.35H23.496V15.4C23.3775 14.2379 23.5147 13.0639 23.898 11.9604C24.2812 10.8569 24.9013 9.8506 25.7146 9.0121C26.528 8.17361 27.5149 7.52321 28.6062 7.10652C29.6975 6.68984 30.8668 6.51695 32.032 6.6C33.7443 6.58946 35.4558 6.67761 37.158 6.864V12.804H33.66C30.888 12.804 30.36 14.124 30.36 16.038V20.284H36.96L36.102 26.884H30.36V44H41.58C41.8978 44 42.2125 43.9374 42.5061 43.8158C42.7997 43.6942 43.0665 43.5159 43.2912 43.2912C43.5159 43.0665 43.6942 42.7997 43.8158 42.5061C43.9374 42.2125 44 41.8978 44 41.58V2.42C44 2.1022 43.9374 1.78751 43.8158 1.49391C43.6942 1.2003 43.5159 0.93352 43.2912 0.708802C43.0665 0.484084 42.7997 0.305828 42.5061 0.184212C42.2125 0.0625953 41.8978 0 41.58 0Z" fill="black"/>
</svg>
