<svg width="44" height="44" viewBox="0 0 44 44" fill="none" xmlns="http://www.w3.org/2000/svg">
<path d="M22 16.544C20.9209 16.544 19.866 16.864 18.9688 17.4635C18.0716 18.063 17.3723 18.9151 16.9593 19.9121C16.5464 20.909 16.4383 22.0061 16.6488 23.0644C16.8594 24.1228 17.379 25.0949 18.142 25.858C18.9051 26.621 19.8772 27.1406 20.9356 27.3512C21.9939 27.5617 23.091 27.4536 24.0879 27.0407C25.0849 26.6277 25.937 25.9284 26.5365 25.0312C27.136 24.134 27.456 23.0791 27.456 22C27.456 21.2835 27.3149 20.574 27.0407 19.9121C26.7665 19.2501 26.3646 18.6487 25.858 18.142C25.3513 17.6354 24.7499 17.2335 24.0879 16.9593C23.426 16.6851 22.7165 16.544 22 16.544ZM43.846 11.154C43.8344 9.45507 43.5216 7.77166 42.922 6.182C42.4804 5.01877 41.7972 3.96241 40.9174 3.08261C40.0376 2.20281 38.9812 1.51958 37.818 1.078C36.2283 0.47842 34.5449 0.165574 32.846 0.154C30.008 -1.47522e-07 29.172 0 22 0C14.828 0 13.992 -1.47522e-07 11.154 0.154C9.45507 0.165574 7.77166 0.47842 6.182 1.078C5.01877 1.51958 3.96241 2.20281 3.08261 3.08261C2.20281 3.96241 1.51958 5.01877 1.078 6.182C0.47842 7.77166 0.165574 9.45507 0.154 11.154C-1.47522e-07 13.992 0 14.828 0 22C0 29.172 -1.47522e-07 30.008 0.154 32.846C0.177681 34.5509 0.490104 36.2395 1.078 37.84C1.51762 38.9979 2.20028 40.0482 3.08 40.92C3.95603 41.8051 5.01466 42.4883 6.182 42.922C7.77166 43.5216 9.45507 43.8344 11.154 43.846C13.992 44 14.828 44 22 44C29.172 44 30.008 44 32.846 43.846C34.5449 43.8344 36.2283 43.5216 37.818 42.922C38.9853 42.4883 40.044 41.8051 40.92 40.92C41.7997 40.0482 42.4824 38.9979 42.922 37.84C43.521 36.2425 43.8338 34.552 43.846 32.846C44 30.008 44 29.172 44 22C44 14.828 44 13.992 43.846 11.154ZM38.258 28.754C38.1874 30.1116 37.8977 31.4489 37.4 32.714C36.9729 33.7693 36.338 34.728 35.533 35.533C34.728 36.338 33.7693 36.9729 32.714 37.4C31.4369 37.8699 30.0922 38.1299 28.732 38.17C26.994 38.17 26.532 38.17 22 38.17C17.468 38.17 17.006 38.17 15.268 38.17C13.9078 38.1299 12.5631 37.8699 11.286 37.4C10.195 36.9946 9.20981 36.3478 8.404 35.508C7.60687 34.7188 6.99126 33.7653 6.6 32.714C6.12823 31.4383 5.87533 30.092 5.852 28.732C5.852 26.994 5.852 26.532 5.852 22C5.852 17.468 5.852 17.006 5.852 15.268C5.87533 13.908 6.12823 12.5617 6.6 11.286C7.00542 10.195 7.6522 9.20981 8.492 8.404C9.28473 7.61117 10.2372 6.99621 11.286 6.6C12.5631 6.13009 13.9078 5.87006 15.268 5.83C17.006 5.83 17.468 5.83 22 5.83C26.532 5.83 26.994 5.83 28.732 5.83C30.0922 5.87006 31.4369 6.13009 32.714 6.6C33.805 7.00542 34.7902 7.6522 35.596 8.492C36.3931 9.28125 37.0087 10.2347 37.4 11.286C37.8699 12.5631 38.1299 13.9078 38.17 15.268C38.17 17.006 38.17 17.468 38.17 22C38.17 26.532 38.324 26.994 38.258 28.732V28.754ZM34.738 12.386C34.4761 11.6754 34.0631 11.03 33.5275 10.4945C32.992 9.95893 32.3466 9.54594 31.636 9.284C30.6602 8.94577 29.6326 8.78194 28.6 8.8C26.884 8.8 26.4 8.8 22 8.8C17.6 8.8 17.116 8.8 15.4 8.8C14.3622 8.81014 13.3344 9.00379 12.364 9.372C11.6642 9.62204 11.0257 10.0182 10.4909 10.534C9.95604 11.0499 9.53713 11.6737 9.262 12.364C8.94251 13.3438 8.78642 14.3695 8.8 15.4C8.8 17.116 8.8 17.6 8.8 22C8.8 26.4 8.8 26.884 8.8 28.6C8.82181 29.6366 9.01509 30.6625 9.372 31.636C9.63394 32.3466 10.0469 32.992 10.5825 33.5275C11.118 34.0631 11.7634 34.4761 12.474 34.738C13.4127 35.0832 14.4004 35.2763 15.4 35.31C17.116 35.31 17.6 35.31 22 35.31C26.4 35.31 26.884 35.31 28.6 35.31C29.6378 35.2999 30.6656 35.1062 31.636 34.738C32.3466 34.4761 32.992 34.0631 33.5275 33.5275C34.0631 32.992 34.4761 32.3466 34.738 31.636C35.1062 30.6656 35.2999 29.6378 35.31 28.6C35.31 26.884 35.31 26.4 35.31 22C35.31 17.6 35.31 17.116 35.31 15.4C35.3106 14.3612 35.1166 13.3314 34.738 12.364V12.386ZM22 30.404C20.8974 30.404 19.8056 30.1865 18.7873 29.7639C17.7689 29.3412 16.8439 28.7219 16.0652 27.9412C15.2866 27.1605 14.6697 26.2339 14.2497 25.2144C13.8298 24.1949 13.6151 23.1026 13.618 22C13.618 20.3369 14.1115 18.7112 15.0359 17.3287C15.9603 15.9462 17.2741 14.8691 18.811 14.2336C20.3479 13.5982 22.0388 13.4331 23.6696 13.7591C25.3005 14.0852 26.7979 14.8878 27.9723 16.0653C29.1467 17.2428 29.9454 18.7423 30.2672 20.374C30.589 22.0057 30.4194 23.6961 29.78 25.2313C29.1405 26.7666 28.0599 28.0776 26.675 28.9984C25.2901 29.9192 23.6631 30.4084 22 30.404ZM30.8 15.246C30.3137 15.1945 29.8636 14.9649 29.5365 14.6013C29.2094 14.2378 29.0284 13.766 29.0284 13.277C29.0284 12.788 29.2094 12.3162 29.5365 11.9527C29.8636 11.5891 30.3137 11.3595 30.8 11.308C31.2863 11.3595 31.7364 11.5891 32.0635 11.9527C32.3906 12.3162 32.5716 12.788 32.5716 13.277C32.5716 13.766 32.3906 14.2378 32.0635 14.6013C31.7364 14.9649 31.2863 15.1945 30.8 15.246Z" fill="black"/>
</svg>
