<svg width="12" height="12" viewBox="0 0 12 12" fill="none" xmlns="http://www.w3.org/2000/svg">
<path d="M11.9728 0.514355C12.0001 0.446207 12.0068 0.371551 11.992 0.299644C11.9773 0.227737 11.9418 0.16174 11.8898 0.109835C11.8379 0.0579302 11.7719 0.0224001 11.7 0.00764952C11.6281 -0.00710107 11.5535 -0.000423445 11.4853 0.0268546L0.57508 4.3911H0.57433L0.23533 4.5261C0.171123 4.55172 0.115244 4.59458 0.0738666 4.64995C0.0324892 4.70533 0.0072234 4.77106 0.000859993 4.8399C-0.00550341 4.90873 0.00728328 4.97798 0.0378076 5.04001C0.068332 5.10203 0.115406 5.15441 0.17383 5.19135L0.48133 5.38635L0.48208 5.38785L4.22833 7.77136L6.61183 11.5176L6.61333 11.5191L6.80833 11.8266C6.8454 11.8848 6.8978 11.9316 6.95978 11.962C7.02176 11.9923 7.0909 12.005 7.1596 11.9985C7.2283 11.9921 7.29389 11.9668 7.34916 11.9255C7.40442 11.8842 7.44722 11.8284 7.47283 11.7644L11.9728 0.514355ZM10.5981 1.93185L4.97758 7.55235L4.81633 7.29885C4.78678 7.25234 4.74735 7.2129 4.70083 7.18335L4.44733 7.0221L10.0678 1.4016L10.9513 1.04835L10.5988 1.93185H10.5981Z" fill="white"/>
</svg>
