<svg width="55" height="44" viewBox="0 0 55 44" fill="none" xmlns="http://www.w3.org/2000/svg">
<path d="M54.05 5.2715C52.0186 6.15277 49.8704 6.73534 47.6721 7.0011C49.9913 5.61558 51.7293 3.43591 52.5636 0.866422C50.3842 2.16379 47.9984 3.07787 45.5101 3.56892C43.8468 1.7652 41.6319 0.564543 39.2127 0.155263C36.7936 -0.254017 34.307 0.151228 32.143 1.30744C29.9789 2.46365 28.2599 4.30544 27.2554 6.54393C26.2509 8.78243 26.0177 11.291 26.5926 13.6763C22.186 13.4534 17.8755 12.306 13.9413 10.3086C10.007 8.31119 6.53693 5.50849 3.75647 2.08255C2.78124 3.78558 2.2688 5.71423 2.2701 7.67672C2.26664 9.49924 2.7139 11.2943 3.57204 12.9022C4.43019 14.51 5.6726 15.8807 7.18865 16.8922C5.42656 16.8443 3.70212 16.3715 2.162 15.514V15.6491C2.17521 18.2027 3.07002 20.6733 4.69509 22.6431C6.32016 24.6128 8.57572 25.9609 11.0802 26.4591C10.1161 26.7525 9.11519 26.9072 8.1075 26.9185C7.40996 26.9104 6.71415 26.8471 6.02657 26.7293C6.73979 28.926 8.11999 30.8456 9.97513 32.2213C11.8303 33.5969 14.0681 34.36 16.3771 34.4044C12.478 37.4725 7.66397 39.1469 2.7025 39.1608C1.79915 39.1638 0.896515 39.1096 0 38.9987C5.06564 42.2694 10.9689 44.0057 16.9987 43.9983C21.1597 44.0415 25.2877 43.2552 29.1414 41.6852C32.9951 40.1152 36.4973 37.7931 39.4435 34.8544C42.3897 31.9157 44.7209 28.4195 46.3007 24.5698C47.8806 20.7201 48.6775 16.5942 48.645 12.4331C48.645 11.9737 48.645 11.4872 48.645 11.0008C50.7656 9.41932 52.5946 7.48059 54.05 5.2715Z" fill="black"/>
</svg>
